<svg width="123" height="120" viewBox="0 0 123 120" fill="none" xmlns="http://www.w3.org/2000/svg">
<g clip-path="url(#clip0_1687_2507)">
<path d="M48.1804 119.854C38.8088 119.854 30.4833 117.918 23.2039 114.046C15.9245 110.173 10.2577 104.621 6.2034 97.3874C2.148 90.1507 0.121537 81.5822 0.124026 71.6818V69.0178C0.124026 59.2455 2.15048 50.7411 6.2034 43.5047C10.2563 36.2683 15.9232 30.7149 23.2039 26.8445C30.4858 22.9736 38.8113 21.0381 48.1804 21.0381C57.5496 21.0381 65.8759 22.9736 73.1595 26.8445C80.4399 30.7174 86.1065 36.2708 90.1591 43.5047C94.2118 50.7387 96.2382 59.243 96.2385 69.0178V71.6818C96.2385 81.583 94.2121 90.1515 90.1591 97.3874C86.1062 104.623 80.4397 110.176 73.1595 114.047C65.8765 117.917 57.5501 119.853 48.1804 119.854ZM48.1804 104.051C57.2996 104.051 64.6443 101.131 70.2143 95.2913C75.7858 89.4556 78.5718 81.4591 78.5723 71.3018V69.5882C78.5723 59.4356 75.7863 51.439 70.2143 45.5983C64.6415 39.764 57.2969 36.8448 48.1804 36.8407C39.1884 36.8407 31.876 39.7599 26.2432 45.5983C20.6104 51.4368 17.7928 59.4334 17.7906 69.5882V71.3018C17.7906 81.4586 20.6081 89.4551 26.2432 95.2913C31.8782 101.128 39.1906 104.048 48.1804 104.051Z" fill="#3238C4"/>
<path d="M103.975 32.5648C94.3942 29.0631 77.421 14.7613 88.9419 3.10478C93.2494 -0.79681 99.8141 -1.15932 103.975 3.31264C108.134 -1.16015 114.702 -0.795563 119.008 3.10478C130.534 14.7717 113.541 29.0727 103.975 32.5648Z" fill="#3238C4"/>
</g>
<defs>
<clipPath id="clip0_1687_2507">
<rect width="123" height="120" fill="white"/>
</clipPath>
</defs>
</svg>
